<svg width="161" height="161" viewBox="0 0 161 161" fill="none" xmlns="http://www.w3.org/2000/svg">
<circle cx="80.5" cy="80.5" r="80.5" fill="#E3E3E3"/>
<path fill-rule="evenodd" clip-rule="evenodd" d="M102.066 49.251V51.09L101.146 51.0948C98.2383 51.1097 96.6445 53.4393 97.1232 56.974C97.4574 59.441 97.8991 60.4945 104.227 73.9164C104.675 74.8684 106.185 78.0814 107.582 81.0564C108.978 84.0314 110.488 87.2444 110.936 88.1964C117.811 102.792 118.52 104.322 118.52 104.553C118.52 104.666 114.028 104.748 107.834 104.748H97.148L95.672 101.557C94.8601 99.8016 93.6947 97.2944 93.0822 95.9854C92.4699 94.6764 91.83 93.2889 91.6602 92.9023L91.3519 92.1991H81.0128H70.6736V88.7373V85.2754H79.3336C84.0966 85.2754 87.9936 85.2389 87.9936 85.1943C87.9936 85.0991 86.9156 82.7293 85.6192 79.9745C84.5811 77.7683 80.8608 69.7687 80.0348 67.9664C79.7348 67.3119 78.9365 65.608 78.2606 64.18C77.5849 62.752 76.7057 60.8742 76.3069 60.0072C75.9081 59.1403 75.5078 58.5074 75.4173 58.6009C75.3266 58.6943 74.1348 61.205 72.7685 64.18C71.4021 67.155 69.9334 70.3436 69.5047 71.2659C69.0759 72.1883 68.4006 73.6485 68.0037 74.5114C67.6071 75.3742 66.0944 78.6601 64.6424 81.8136C63.1903 84.9671 60.0171 91.4418 57.591 96.2018L53.1798 104.856L47.0423 104.784C43.6668 104.744 40.8707 104.678 40.8289 104.636C40.7874 104.594 47.2174 91.7032 55.1179 75.9887L69.4829 47.4173L85.7745 47.4145L102.066 47.4119V49.251Z" fill="#1F3131"/>
<path d="M77.3544 142.119L73.3568 150.553L72.1692 150.421L70.1252 141.314L71.057 141.418L73.0044 150.008L72.6512 149.969L76.4226 142.015L77.3544 142.119ZM75.7717 144.095L75.6781 144.935L71.1469 144.431L71.2405 143.59L75.7717 144.095Z" fill="black"/>
<path d="M62.7266 139.518L63.0123 148.847L62.1169 148.568L61.8612 140.321L56.961 146.967L56.0656 146.689L61.5854 139.163L62.7266 139.518Z" fill="black"/>
<path d="M54.2651 136.377L50.1499 144.183L45.2711 141.611L45.6741 140.847L49.756 142.999L51.1791 140.299L47.7477 138.49L48.1507 137.726L51.5821 139.535L53.0653 136.721L48.9833 134.569L49.3863 133.805L54.2651 136.377Z" fill="black"/>
<path d="M44.531 130.715L39.0144 137.602L36.3551 135.472C36.2881 135.418 36.2158 135.355 36.138 135.282C36.0544 135.21 35.976 135.132 35.9027 135.047C35.5858 134.704 35.3822 134.334 35.2918 133.937C35.1957 133.541 35.2026 133.143 35.3126 132.745C35.4194 132.344 35.6171 131.963 35.9057 131.602C36.322 131.083 36.8205 130.741 37.4012 130.578C37.9819 130.415 38.5669 130.489 39.1563 130.799L39.4461 130.937L41.7324 132.768L43.8279 130.152L44.531 130.715ZM40.3603 127.374L39.4737 131.265L38.5924 130.983L39.552 126.727L40.3603 127.374ZM41.196 133.437L39.259 131.886C39.2016 131.84 39.1321 131.789 39.0504 131.734C38.9688 131.68 38.8849 131.631 38.7988 131.588C38.522 131.45 38.2512 131.393 37.9864 131.416C37.7184 131.437 37.4686 131.517 37.2369 131.656C37.002 131.792 36.799 131.967 36.6279 132.181C36.4568 132.395 36.3303 132.631 36.2485 132.89C36.1609 133.149 36.1362 133.412 36.1743 133.678C36.2093 133.942 36.3243 134.194 36.5194 134.434C36.5799 134.508 36.6472 134.578 36.7212 134.642C36.7926 134.71 36.857 134.767 36.9144 134.813L38.8515 136.364L41.196 133.437Z" fill="black"/>
<path d="M33.3326 119.955C33.8937 120.63 34.2182 121.325 34.3058 122.038C34.3904 122.754 34.2663 123.451 33.9335 124.131C33.6007 124.811 33.0869 125.44 32.3924 126.016C31.6978 126.593 30.9857 126.983 30.2562 127.185C29.5267 127.387 28.8195 127.38 28.1346 127.162C27.4466 126.948 26.8221 126.503 26.2609 125.827C25.6972 125.148 25.3743 124.452 25.2924 123.74C25.2047 123.027 25.3273 122.33 25.6601 121.65C25.9903 120.967 26.5027 120.337 27.1973 119.76C27.8919 119.184 28.6052 118.796 29.3374 118.597C30.0669 118.394 30.7756 118.401 31.4636 118.615C32.1459 118.829 32.7689 119.276 33.3326 119.955ZM32.6679 120.507C32.2268 119.975 31.7378 119.633 31.2009 119.479C30.6639 119.324 30.1071 119.338 29.5303 119.52C28.9479 119.701 28.3737 120.026 27.808 120.496C27.2423 120.966 26.8185 121.469 26.5367 122.006C26.2522 122.539 26.1365 123.084 26.1894 123.64C26.2423 124.196 26.4877 124.741 26.9257 125.275C27.3668 125.806 27.8545 126.147 28.3888 126.298C28.9231 126.449 29.4815 126.434 30.064 126.253C30.6407 126.072 31.2133 125.748 31.7816 125.281C32.35 124.814 32.7764 124.314 33.0608 123.781C33.3395 123.247 33.4539 122.7 33.4041 122.141C33.3512 121.585 33.1058 121.04 32.6679 120.507Z" fill="black"/>
<path d="M21.1408 104.618C21.2408 104.868 21.2748 105.119 21.2429 105.369C21.2071 105.621 21.113 105.848 20.9604 106.049C20.8079 106.251 20.6064 106.402 20.356 106.502C20.1018 106.604 19.8499 106.634 19.6004 106.593C19.3508 106.552 19.1282 106.452 18.9325 106.292C18.7368 106.133 18.589 105.928 18.4889 105.678C18.395 105.442 18.3655 105.203 18.4005 104.961C18.4354 104.718 18.53 104.498 18.6841 104.3C18.8366 104.098 19.04 103.946 19.2942 103.845C19.5446 103.745 19.7945 103.715 20.0441 103.756C20.2922 103.793 20.5144 103.887 20.7108 104.037C20.9035 104.189 21.0468 104.383 21.1408 104.618Z" fill="black"/>
<path d="M19.3024 88.6918L10.4914 89.1766L10.446 88.3506L17.6652 84.4797L10.0658 81.4425L10.0197 80.6043L18.8246 80.1198L18.8717 80.9764L12.0738 81.3505L19.0506 84.115L19.0826 84.6963L12.4509 88.2035L19.255 87.8291L19.3024 88.6918Z" fill="black"/>
<path d="M19.9569 70.914C19.8119 71.7803 19.4981 72.4795 19.0154 73.0118C18.5288 73.5434 17.9194 73.9052 17.1871 74.0975C16.4549 74.2897 15.6436 74.3112 14.7531 74.1622C13.8627 74.0131 13.1026 73.7284 12.4729 73.3082C11.8432 72.8879 11.3869 72.3476 11.104 71.6872C10.817 71.0261 10.7461 70.2624 10.8911 69.3961C11.0368 68.5258 11.3527 67.8269 11.8386 67.2993C12.3213 66.7671 12.9287 66.4049 13.6609 66.2127C14.3938 66.0164 15.2055 65.9928 16.0959 66.1419C16.9864 66.291 17.7461 66.5777 18.3751 67.0019C19.0048 67.4222 19.4631 67.9628 19.7501 68.6239C20.0337 69.2803 20.1027 70.0437 19.9569 70.914ZM19.1047 70.7713C19.2188 70.0904 19.1588 69.4963 18.9247 68.989C18.6907 68.4818 18.3166 68.0691 17.8023 67.7511C17.2848 67.4283 16.6633 67.2062 15.9381 67.0848C15.2128 66.9633 14.5549 66.9712 13.9645 67.1085C13.3747 67.2417 12.8866 67.51 12.5001 67.9134C12.1136 68.3167 11.8613 68.8585 11.7433 69.5388C11.6293 70.2197 11.6896 70.8118 11.9243 71.3151C12.159 71.8183 12.5352 72.2313 13.0528 72.554C13.567 72.8721 14.1864 73.0938 14.911 73.2193C15.6356 73.3448 16.2928 73.3409 16.8826 73.2077C17.469 73.0697 17.9575 72.7994 18.348 72.3968C18.7345 71.9934 18.9867 71.4516 19.1047 70.7713Z" fill="black"/>
<path d="M21.8611 61.9152L13.6286 58.7378L14.5929 56.2395C14.6267 56.1518 14.686 56.0039 14.7707 55.7958C14.8569 55.5838 14.9508 55.3858 15.0525 55.2017C15.3814 54.6105 15.8155 54.1781 16.3546 53.9045C16.8937 53.6308 17.4953 53.5018 18.1593 53.5172C18.8234 53.5326 19.506 53.6757 20.2073 53.9464C20.9086 54.217 21.5104 54.5697 22.0126 55.0044C22.5148 55.4391 22.8737 55.9389 23.0892 56.5037C23.3047 57.0686 23.3357 57.6805 23.1821 58.3394C23.1314 58.5388 23.0679 58.7486 22.9917 58.9687C22.9117 59.1875 22.8562 59.3368 22.8253 59.4169L21.8611 61.9152ZM21.3904 60.7351L22.0192 59.1058C22.0795 58.9495 22.1405 58.7803 22.202 58.5983C22.2611 58.4109 22.3024 58.2473 22.3257 58.1074C22.4272 57.5948 22.3822 57.1329 22.1905 56.7218C22.0004 56.3068 21.7031 55.9425 21.2987 55.6287C20.8905 55.3135 20.4119 55.05 19.8631 54.8382C19.3105 54.6249 18.7771 54.4979 18.263 54.4571C17.7488 54.4163 17.2838 54.4864 16.868 54.6675C16.4522 54.8486 16.1104 55.1612 15.8427 55.6052C15.766 55.7245 15.6878 55.876 15.6081 56.0599C15.526 56.2384 15.4563 56.402 15.399 56.5506L14.7701 58.18L21.3904 60.7351Z" fill="black"/>
<path d="M26.3432 51.4188L20.5152 44.129L21.1547 43.1195L30.2357 45.274L29.734 46.066L21.1594 44.051L21.3496 43.7508L26.845 50.6268L26.3432 51.4188ZM25.2613 49.1303L24.5469 48.6777L26.9866 44.8262L27.701 45.2788L25.2613 49.1303Z" fill="black"/>
<path d="M38.2417 36.1567L32.4786 29.4742L36.3164 26.1644L36.9047 26.8466L33.7491 29.568L35.7501 31.8883L38.3489 29.6471L38.9332 30.3247L36.3344 32.5659L38.9238 35.5684L38.2417 36.1567Z" fill="black"/>
<path d="M46.4803 29.633L41.9909 22.0361L46.739 19.2302L47.1786 19.974L43.206 22.3216L44.7586 24.9489L48.0981 22.9754L48.5377 23.7193L45.1982 25.6928L46.8163 28.4309L50.7888 26.0833L51.2284 26.8271L46.4803 29.633Z" fill="black"/>
<path d="M56.3612 24.252L53.5422 15.8901L54.3262 15.6258L59.9835 21.55L60.8822 13.4156L61.6777 13.1475L64.4947 21.5036L63.6818 21.7777L61.5068 15.3262L60.7048 22.7877L60.1531 22.9737L55.0031 17.5187L57.18 23.976L56.3612 24.252Z" fill="black"/>
<path d="M70.2893 20.4081L68.9412 11.6873L69.8314 11.5497L71.1796 20.2704L70.2893 20.4081Z" fill="black"/>
<path d="M76.8329 19.6052V10.7809H77.7398L82.5994 18.0119V10.7809H83.5063V19.6052H82.5994L77.7398 12.368V19.6052H76.8329Z" fill="black"/>
<path d="M88.9966 20.2394L90.3448 11.5186L91.235 11.6562L89.8869 20.377L88.9966 20.2394Z" fill="black"/>
<path d="M95.4772 21.4498L98.1418 13.0374L99.0064 13.3113L101.456 21.6722L103.639 14.7787L104.504 15.0525L101.839 23.4649L100.975 23.1911L98.5272 14.8243L96.3418 21.7237L95.4772 21.4498Z" fill="black"/>
<path d="M106.229 25.2776L113.147 19.0119L114.194 19.588L112.602 28.7845L111.781 28.3325L113.264 19.6501L113.576 19.8215L107.051 25.7296L106.229 25.2776ZM108.447 24.0568L108.855 23.3159L112.849 25.514L112.441 26.2549L108.447 24.0568Z" fill="black"/>
<path d="M122.202 36.1966L128.555 30.072L132.383 34.0424L131.761 34.6421L128.558 31.3202L126.361 33.4383L129.054 36.2308L128.432 36.8305L125.739 34.038L123.45 36.2454L126.652 39.5674L126.03 40.1671L122.202 36.1966Z" fill="black"/>
<path d="M133.418 50.2451L141.371 46.4219L141.729 47.1675L136.543 53.5087L144.727 53.403L145.09 54.1597L137.143 57.9802L136.771 57.2069L142.907 54.2573L135.403 54.3763L135.151 53.8516L139.933 48.0715L133.792 51.0238L133.418 50.2451Z" fill="black"/>
<path d="M138.836 62.8113L148.124 63.7276L148.401 64.8902L140.518 69.888L140.302 68.9759L147.73 64.2433L147.813 64.5891L139.053 63.7234L138.836 62.8113ZM141.23 63.6343L142.053 63.4387L143.107 67.8743L142.284 68.0699L141.23 63.6343Z" fill="black"/>
<path d="M141.177 78.287C141.15 77.6707 141.228 77.1112 141.411 76.6086C141.598 76.1098 141.874 75.691 142.24 75.3521C142.606 75.0174 143.048 74.7897 143.566 74.6692L143.759 75.5809C143.194 75.7525 142.758 76.0821 142.452 76.5697C142.15 77.0571 142.013 77.6294 142.042 78.2865C142.06 78.7191 142.144 79.104 142.294 79.441C142.447 79.7778 142.655 80.0387 142.916 80.2237C143.178 80.4087 143.482 80.4937 143.829 80.4787C144.058 80.4688 144.25 80.4196 144.405 80.3311C144.565 80.2424 144.695 80.1285 144.796 79.9892C144.896 79.8499 144.977 79.6992 145.04 79.537C145.106 79.3746 145.159 79.217 145.197 79.064L145.768 76.8006C145.834 76.5278 145.921 76.2746 146.03 76.0409C146.142 75.8071 146.278 75.6008 146.438 75.4222C146.602 75.2474 146.797 75.1082 147.021 75.0044C147.246 74.9007 147.505 74.8424 147.799 74.8297C148.297 74.8082 148.733 74.9202 149.108 75.1657C149.482 75.4112 149.777 75.7563 149.993 76.2009C150.208 76.6455 150.326 77.1576 150.347 77.7374C150.373 78.3251 150.291 78.8541 150.103 79.3243C149.915 79.7986 149.634 80.1951 149.259 80.5139C148.888 80.8325 148.442 81.0522 147.92 81.1729L147.708 80.2375C148.089 80.1597 148.415 80.0045 148.687 79.7719C148.959 79.5394 149.163 79.2484 149.3 78.899C149.44 78.5535 149.504 78.1766 149.49 77.7683C149.473 77.3724 149.39 77.0223 149.242 76.7179C149.098 76.4174 148.908 76.1823 148.672 76.0126C148.436 75.8429 148.171 75.7644 147.877 75.7771C147.579 75.79 147.343 75.8819 147.171 76.0529C146.999 76.228 146.867 76.4382 146.775 76.6834C146.683 76.9327 146.61 77.1731 146.555 77.4045L146.121 79.1529C146.08 79.3346 146.018 79.5479 145.934 79.7928C145.855 80.0415 145.734 80.2839 145.573 80.5199C145.416 80.7598 145.204 80.9611 144.937 81.124C144.67 81.2868 144.326 81.3773 143.906 81.3955C143.497 81.4131 143.129 81.3473 142.799 81.1979C142.47 81.0527 142.189 80.8379 141.955 80.5535C141.723 80.2733 141.54 79.9397 141.409 79.5528C141.274 79.1702 141.197 78.7483 141.177 78.287Z" fill="black"/>
<path d="M140.541 89.9776C140.675 89.1095 140.98 88.4063 141.455 87.868C141.935 87.3302 142.54 86.9606 143.27 86.7591C143.999 86.5575 144.81 86.5256 145.703 86.6633C146.595 86.801 147.359 87.076 147.994 87.4881C148.629 87.9003 149.092 88.4348 149.383 89.0915C149.678 89.7489 149.759 90.5116 149.625 91.3797C149.469 92.3931 149.081 93.1806 148.461 93.7422C147.845 94.3044 147.082 94.6373 146.173 94.7409L146.077 93.796C146.797 93.7169 147.395 93.4682 147.873 93.05C148.351 92.6319 148.65 92.0312 148.771 91.2479C148.876 90.5655 148.809 89.9743 148.567 89.4741C148.326 88.9739 147.945 88.5658 147.423 88.2496C146.905 87.9381 146.283 87.7223 145.558 87.602C144.832 87.4858 144.175 87.4981 143.586 87.6388C142.998 87.7836 142.511 88.0598 142.125 88.4674C141.744 88.8797 141.5 89.4271 141.395 90.1094C141.274 90.8927 141.378 91.5557 141.708 92.0985C142.041 92.6419 142.537 93.0594 143.195 93.3511L142.818 94.2231C141.983 93.8503 141.354 93.3027 140.933 92.5803C140.515 91.8586 140.384 90.991 140.541 89.9776Z" fill="black"/>
<path d="M137.384 102.157C137.622 101.527 137.963 101.018 138.407 100.631C138.849 100.248 139.359 100.009 139.937 99.9127C140.514 99.8169 141.121 99.8889 141.755 100.129L147.022 102.122L146.707 102.972L141.543 101.018C141.115 100.856 140.717 100.789 140.348 100.815C139.984 100.844 139.656 100.936 139.366 101.092C139.077 101.254 138.833 101.456 138.632 101.699C138.431 101.942 138.28 102.195 138.18 102.459C138.079 102.726 138.024 103.017 138.014 103.333C138.004 103.648 138.054 103.959 138.164 104.268C138.279 104.577 138.463 104.863 138.718 105.126C138.976 105.389 139.319 105.602 139.747 105.764L144.911 107.718L144.59 108.566L139.317 106.571C138.683 106.331 138.181 105.984 137.811 105.53C137.445 105.077 137.222 104.558 137.142 103.973C137.065 103.393 137.145 102.788 137.384 102.157Z" fill="black"/>
<path d="M133.616 110.831L141.131 115.458L140.658 116.225L133.88 112.051L131.682 115.621L130.947 115.168L133.616 110.831Z" fill="black"/>
<path d="M127.643 119.521L134.432 125.158L133.856 125.851L127.067 120.214L127.643 119.521Z" fill="black"/>
<path d="M123.274 124.458L129.122 131.066L128.443 131.667L120.012 129.473L124.804 134.888L124.125 135.489L118.277 128.88L118.956 128.279L127.391 130.479L122.595 125.059L123.274 124.458Z" fill="black"/>
<path d="M114.466 131.716L116.287 140.87L115.255 141.472L108.183 135.381L108.993 134.909L115.679 140.642L115.372 140.822L113.656 132.188L114.466 131.716ZM114.374 134.246L114.8 134.976L110.862 137.273L110.436 136.543L114.374 134.246Z" fill="black"/>
<path d="M94.3402 142.896C94.6032 142.837 94.8558 142.843 95.098 142.914C95.341 142.989 95.55 143.118 95.7251 143.301C95.9002 143.483 96.0173 143.706 96.0765 143.969C96.1366 144.236 96.1267 144.49 96.0467 144.729C95.9667 144.969 95.8325 145.173 95.6442 145.341C95.4559 145.509 95.2302 145.623 94.9671 145.682C94.72 145.738 94.4794 145.729 94.2452 145.656C94.011 145.583 93.8084 145.455 93.6373 145.272C93.4622 145.089 93.3447 144.864 93.2846 144.597C93.2254 144.334 93.2358 144.083 93.3158 143.843C93.3918 143.604 93.5195 143.399 93.699 143.229C93.8793 143.063 94.0931 142.952 94.3402 142.896Z" fill="black"/>
</svg>
