<svg width="18" height="14" viewBox="0 0 18 14" fill="none" xmlns="http://www.w3.org/2000/svg">
<g clip-path="url(#clip0_139_961)">
<g clip-path="url(#clip1_139_961)">
<path d="M8.34438 0.33714C8.61416 0.339501 8.80718 0.345159 8.95755 0.356145C9.26505 0.378647 9.40087 0.425162 9.64668 0.513153L10.0161 0.653634C10.0672 0.674365 10.1123 0.693362 10.1467 0.709001C10.1772 0.7229 10.2088 0.738348 10.2268 0.751971L10.2293 0.752797C10.2309 0.753812 10.2331 0.755351 10.2359 0.756929C10.2419 0.760284 10.2501 0.76463 10.2599 0.769325C10.2795 0.778742 10.3049 0.7896 10.3342 0.801553C10.3929 0.825455 10.4656 0.852065 10.5376 0.875099L10.7739 0.962696C10.8501 0.994674 10.9177 1.02728 10.959 1.05276L11.1209 1.12962C11.1905 1.15834 11.2698 1.18807 11.3425 1.2106C11.4186 1.23426 11.4968 1.26234 11.5614 1.28911C11.6217 1.31409 11.6813 1.34224 11.7127 1.36678L11.716 1.36926C11.7181 1.37065 11.7212 1.37206 11.725 1.37422C11.7328 1.37867 11.7429 1.38444 11.7556 1.39074C11.781 1.40337 11.8144 1.41876 11.8531 1.43537C11.9303 1.46848 12.0272 1.50642 12.125 1.54114L12.5514 1.70558C12.7213 1.77369 12.9055 1.84954 13.0629 1.91713L13.7149 2.19727L13.7604 2.22041C13.7755 2.22979 13.7903 2.24115 13.8041 2.25512C13.8329 2.28416 13.8523 2.32007 13.8636 2.36337C13.8846 2.44415 13.8782 2.55645 13.8512 2.71622C13.8239 2.87822 13.7725 3.10336 13.6926 3.41946L13.3628 4.66891C13.2381 5.13285 13.1642 5.39518 13.0943 5.53906C13.0585 5.61254 13.0182 5.66751 12.9621 5.70102C12.9057 5.7346 12.8456 5.73904 12.7918 5.73904C12.6956 5.73904 12.6005 5.72102 12.4283 5.66219C12.3428 5.633 12.2368 5.59285 12.1002 5.53906L11.5878 5.33247C11.4861 5.29083 11.3781 5.24951 11.2862 5.21678L11.0805 5.1515L11.0325 5.13993V11.3558L10.978 11.3764L10.8061 11.4426C10.7899 11.4487 10.7695 11.4518 10.7532 11.4541C10.7346 11.4568 10.7113 11.4593 10.6846 11.4616C10.6309 11.4662 10.5586 11.4708 10.4698 11.4748C10.2915 11.4828 10.0431 11.4897 9.73596 11.4955C9.12145 11.5069 8.26933 11.5128 7.26599 11.5128C5.81075 11.5128 4.97008 11.5102 4.47703 11.4955C4.23095 11.488 4.06815 11.4771 3.95808 11.4624C3.84992 11.4479 3.78004 11.428 3.73 11.393L3.58126 11.2888L3.5449 11.2632V8.12721C3.5449 6.66906 3.543 5.89809 3.52754 5.49609C3.52061 5.31599 3.50971 5.21769 3.49862 5.16555C3.4552 5.18096 3.38609 5.20616 3.30195 5.23827L2.88877 5.39858C2.60401 5.51179 2.38372 5.59766 2.21198 5.65228C2.04264 5.70613 1.90799 5.73446 1.7988 5.72086C1.67911 5.70596 1.59883 5.64258 1.53932 5.54402C1.5117 5.49825 1.48764 5.44358 1.46495 5.38123L1.39802 5.17298C1.16693 4.39467 0.989673 3.74495 0.877417 3.27071C0.821404 3.03409 0.781792 2.83959 0.759244 2.69391C0.748014 2.62131 0.740858 2.55884 0.738585 2.5088C0.736512 2.46283 0.73773 2.41424 0.751807 2.37742L0.780729 2.33114C0.790737 2.31988 0.802412 2.30859 0.814609 2.29809C0.839305 2.27683 0.871265 2.25335 0.906331 2.2295C0.976802 2.18161 1.06744 2.12747 1.16003 2.07662C1.25285 2.02566 1.34953 1.97715 1.4319 1.9411C1.47292 1.92315 1.51155 1.90752 1.54511 1.89648C1.57612 1.88629 1.61197 1.87664 1.64262 1.87664C1.63471 1.87664 1.63076 1.87815 1.63684 1.87664C1.64104 1.87559 1.64774 1.87376 1.65667 1.87086C1.67449 1.86506 1.69879 1.85651 1.72774 1.84524C1.78571 1.82265 1.86053 1.79071 1.93681 1.756L2.23594 1.62626C2.34865 1.57874 2.46523 1.53063 2.55822 1.49404L3.66472 1.04285L4.90756 0.534639L5.37775 0.34623L5.39263 0.340445H5.40916L7.26764 0.336313L8.34438 0.33714ZM15.6709 0.339618C15.6842 0.343662 15.6964 0.34887 15.7064 0.353667C15.7291 0.364493 15.7537 0.379661 15.7791 0.396637C15.8301 0.4307 15.891 0.478119 15.9568 0.533812C16.0888 0.645597 16.2473 0.795791 16.3997 0.9503C16.5521 1.10478 16.7002 1.26522 16.8104 1.39901C16.8654 1.46575 16.9123 1.5276 16.9459 1.57915C16.9627 1.6048 16.9775 1.62983 16.9881 1.6527C16.9975 1.67322 17.0087 1.70149 17.0087 1.73121C17.0087 1.83008 16.9711 1.92393 16.9129 1.99316C16.8552 2.06176 16.7705 2.11293 16.674 2.11298C16.6525 2.11298 16.6326 2.10719 16.6195 2.10224C16.605 2.0967 16.5898 2.08886 16.5749 2.08075C16.5449 2.06441 16.5101 2.04169 16.4732 2.01548C16.4362 1.98906 16.3954 1.95815 16.3534 1.92375L16.2254 1.81219C16.1514 1.74406 16.0814 1.68537 16.0262 1.64361C16.0248 1.70084 16.0233 1.77567 16.0221 1.86672C16.0191 2.09464 16.016 2.42278 16.0146 2.82613C16.0118 3.63281 16.0132 4.74118 16.0179 5.95637L16.0345 10.1774L16.1866 10.032L16.3204 9.91463C16.4525 9.81055 16.5789 9.74717 16.6898 9.73693C16.768 9.72982 16.8429 9.7492 16.9005 9.80471C16.956 9.85819 16.9854 9.93468 16.9955 10.0221L16.9964 10.0989C16.9885 10.1739 16.954 10.2476 16.8881 10.3377C16.8453 10.3961 16.7868 10.4644 16.7096 10.5476L16.4179 10.8476C16.2212 11.0443 16.0627 11.1905 15.9386 11.288C15.8766 11.3367 15.8204 11.3749 15.7717 11.4012C15.725 11.4264 15.6757 11.4458 15.6279 11.4459C15.5794 11.4459 15.5296 11.4263 15.4824 11.4005C15.4335 11.3735 15.3778 11.3341 15.3156 11.2839C15.2532 11.2337 15.1816 11.171 15.1007 11.0946L14.828 10.8253C14.5392 10.5301 14.3665 10.3421 14.2884 10.2072C14.2484 10.138 14.2257 10.0706 14.2346 10.0022C14.2438 9.93325 14.2834 9.88078 14.3264 9.8378L14.4008 9.77907C14.4277 9.76342 14.4566 9.75157 14.4875 9.74438C14.5492 9.72999 14.6129 9.73575 14.6768 9.75597C14.8013 9.79532 14.9362 9.89424 15.0841 10.0394L15.2279 10.1807V5.93654C15.2279 4.71444 15.2257 3.6035 15.2221 2.79803C15.2204 2.39544 15.2179 2.06906 15.2155 1.84359C15.2149 1.77517 15.2139 1.71578 15.2131 1.66675L15.0428 1.8221C14.9614 1.89813 14.8761 1.96764 14.804 2.01878C14.7682 2.04425 14.7336 2.0665 14.704 2.08241C14.6895 2.09019 14.6746 2.09691 14.6603 2.10224C14.6471 2.10712 14.6275 2.11298 14.6065 2.11298C14.5559 2.11296 14.5069 2.09428 14.4661 2.07084C14.4242 2.04678 14.3842 2.01418 14.3496 1.97829C14.3149 1.94232 14.2832 1.90066 14.2603 1.85764C14.2379 1.81561 14.2206 1.76646 14.2206 1.71633C14.2206 1.69816 14.2254 1.6826 14.2289 1.67336C14.2328 1.6629 14.2386 1.65215 14.2438 1.64279C14.254 1.62421 14.2675 1.60307 14.2834 1.5808C14.3159 1.53544 14.3623 1.47818 14.4173 1.41388C14.5275 1.28498 14.6787 1.12188 14.8445 0.956079L15.0891 0.721396C15.168 0.64889 15.243 0.583321 15.3097 0.528028C15.3763 0.472929 15.4364 0.42678 15.485 0.394158C15.509 0.378012 15.5321 0.363907 15.5527 0.353667C15.5697 0.345225 15.5974 0.333077 15.6271 0.333008L15.6709 0.339618ZM5.11498 1.24779C5.09639 1.25348 5.07176 1.26197 5.04309 1.2734L4.84641 1.3643C4.77318 1.40164 4.67884 1.44418 4.58611 1.4833L4.33324 1.5808C4.26945 1.60163 4.1849 1.63418 4.10104 1.67005L3.87214 1.77748C3.80607 1.81259 3.73885 1.84479 3.68372 1.86838C3.65622 1.88014 3.63005 1.89003 3.60852 1.89731C3.59134 1.90311 3.56512 1.91209 3.54159 1.91218C3.53934 1.9127 3.52641 1.91515 3.49201 1.92705C3.45174 1.941 3.38998 1.96454 3.29534 2.00308L2.2533 2.44353L1.70377 2.66912L1.52776 2.73771L1.63518 3.15998L1.80624 3.82189C1.85886 4.02126 1.90671 4.19747 1.94837 4.3458C1.99003 4.49409 2.02476 4.61421 2.0525 4.70113C2.06636 4.74457 2.07854 4.77904 2.08803 4.80443C2.09096 4.81229 2.09314 4.8194 2.09547 4.82509C2.11346 4.82546 2.14263 4.82334 2.18636 4.81434C2.27915 4.79525 2.41745 4.75364 2.60863 4.68543L3.52837 4.35903L3.76553 4.27308C3.83424 4.24977 3.90425 4.22983 3.96882 4.23094C4.03964 4.23216 4.10393 4.25835 4.15393 4.31936C4.19948 4.3751 4.2283 4.45471 4.24895 4.55322C4.29041 4.75109 4.30725 5.07181 4.31424 5.56716C4.32125 6.06493 4.31837 6.748 4.31837 7.67438V10.7402L7.30565 10.7237L10.2929 10.7062L10.3103 7.61983L10.3227 5.80515C10.3274 5.35989 10.3335 5.05767 10.3434 4.8507C10.3532 4.64622 10.3673 4.52524 10.3905 4.44992C10.4027 4.41039 10.4188 4.37778 10.4425 4.35159C10.466 4.32581 10.4922 4.31085 10.5103 4.30118L10.5656 4.27308C10.5865 4.26379 10.6102 4.25541 10.6375 4.25159C10.6916 4.24411 10.7532 4.25355 10.8367 4.27639C11.0036 4.32208 11.3062 4.43552 11.9168 4.6623L12.1646 4.74906C12.2419 4.7745 12.3125 4.79602 12.3729 4.81269C12.4336 4.82947 12.4823 4.84101 12.5159 4.84658C12.5168 4.84421 12.5181 4.84173 12.5192 4.83914C12.5308 4.8083 12.5458 4.76573 12.5621 4.71353C12.5946 4.60919 12.6331 4.47088 12.6704 4.32432L12.9431 3.28228L13.0397 2.91372C13.0607 2.82271 13.0675 2.77018 13.0662 2.73854L13.0629 2.71705L13.0621 2.71622L13.0604 2.71539L12.9737 2.6873C12.8723 2.66183 12.6266 2.56473 12.4266 2.47327C12.3276 2.42798 12.2329 2.38635 12.1613 2.35676C12.1256 2.342 12.096 2.33073 12.0746 2.32288C12.0639 2.31898 12.0557 2.31618 12.0506 2.31461C12.0491 2.31416 12.0478 2.31393 12.0473 2.31379C12.0477 2.31388 12.0487 2.31363 12.0498 2.31379L12.0597 2.31461C12.0441 2.31461 12.029 2.31039 12.0233 2.30883C12.0146 2.3064 12.0047 2.30332 11.9944 2.29974C11.9735 2.29245 11.9466 2.2821 11.9168 2.26999L11.7011 2.17579C11.624 2.14033 11.4745 2.07717 11.2962 2.00308L10.7152 1.76674C10.5222 1.68999 10.3267 1.61013 10.1673 1.54362L9.83598 1.39984C9.72851 1.34609 9.65168 1.30914 9.59219 1.28828C9.53194 1.26716 9.50385 1.26796 9.48887 1.27258C9.47575 1.27667 9.45587 1.28862 9.42608 1.33538C9.41102 1.35897 9.39553 1.38808 9.37819 1.4238L9.3187 1.55354C9.14032 1.95645 8.74634 2.3861 8.34604 2.6278L8.17498 2.7187C7.92588 2.83384 7.61244 2.88754 7.3007 2.88397C7.02778 2.88085 6.7506 2.83402 6.51317 2.74184L6.41401 2.6997C5.98813 2.50076 5.60248 2.13783 5.37362 1.72873L5.28521 1.55106C5.24375 1.4553 5.19934 1.36909 5.16126 1.30811C5.14398 1.28046 5.12805 1.26062 5.11663 1.24696L5.11498 1.24779ZM7.67999 1.06185L6.56937 1.08913L5.91324 1.10648L5.99587 1.27092L6.06611 1.40314C6.13625 1.52599 6.20631 1.62196 6.28675 1.70393C6.39385 1.81305 6.52317 1.90105 6.70406 1.99316L6.79909 2.03696C7.28103 2.23419 7.86548 2.12892 8.2824 1.75517L8.35596 1.67915C8.43151 1.58979 8.51211 1.46555 8.57659 1.34447C8.61907 1.26468 8.65266 1.18969 8.67162 1.13127C8.67932 1.10745 8.68253 1.08797 8.68482 1.07342C8.67661 1.07176 8.66612 1.06934 8.65258 1.06764C8.59335 1.06018 8.49536 1.05547 8.33777 1.05441C8.18092 1.05337 7.96806 1.0561 7.67999 1.06185Z" fill="black" stroke="black" stroke-width="0.169238"/>
</g>
</g>
<defs>
<clipPath id="clip0_139_961">
<rect width="17.77" height="13.77" fill="white"/>
</clipPath>
<clipPath id="clip1_139_961">
<rect width="17.77" height="11.8467" fill="white"/>
</clipPath>
</defs>
</svg>
