<svg width="1920" height="358" viewBox="0 0 1920 358" fill="none" xmlns="http://www.w3.org/2000/svg">
<path fill-rule="evenodd" clip-rule="evenodd" d="M1779.4 1.80656C1739.66 8.47996 1705.18 25.5944 1676.73 52.7655C1649.43 78.8526 1631.11 112.381 1624.48 148.424C1621.53 164.459 1621.57 195.845 1624.55 210.858C1631.9 247.879 1647.22 276.251 1674.37 303.093C1701.88 330.298 1731.55 346.437 1769.82 355.007C1781.58 357.638 1786.33 357.97 1811.8 357.944C1842.89 357.912 1852.78 356.518 1875.23 349.012C1931.17 330.31 1976.67 285.106 1993.43 231.566C1999.52 212.124 2001.14 198.702 2000.4 173.77C1999.53 144.435 1995.47 127.387 1983.6 103.269C1956.93 49.0502 1906.75 12.7825 1843.23 1.81294C1829.25 -0.601332 1793.76 -0.605162 1779.4 1.80656ZM15.4616 20.9203V31.7724L20.8877 31.8005C38.034 31.8886 47.4332 45.635 44.6104 66.4927C42.6391 81.0499 40.0346 87.2662 2.72129 166.466C0.0746536 172.084 -8.82919 191.043 -17.0653 208.598C-25.3014 226.153 -34.2027 245.112 -36.8468 250.73C-77.3864 336.854 -81.5689 345.882 -81.5689 347.248C-81.5689 347.915 -55.0808 348.398 -18.5527 348.398H44.4636L53.1682 329.567C57.9559 319.21 64.8285 304.415 68.4403 296.691C72.0509 288.967 75.8249 280.78 76.8258 278.498L78.6438 274.349H139.615H200.586V253.921V233.494H149.517C121.429 233.494 98.4483 233.278 98.4483 233.015C98.4483 232.453 104.805 218.469 112.45 202.214C118.572 189.196 140.511 141.991 145.382 131.356C147.151 127.494 151.858 117.44 155.844 109.014C159.829 100.587 165.014 89.5069 167.366 84.391C169.717 79.2752 172.078 75.5408 172.612 76.0924C173.146 76.6439 180.175 91.459 188.232 109.014C196.29 126.569 204.951 145.384 207.479 150.826C210.008 156.269 213.99 164.886 216.33 169.977C218.669 175.069 227.59 194.458 236.153 213.066C244.715 231.674 263.428 269.88 277.735 297.968L303.748 349.037L339.942 348.61C359.847 348.375 376.336 347.982 376.583 347.737C376.828 347.491 338.909 271.423 292.319 178.695L207.608 10.1001L111.535 10.0835L15.4616 10.0682V20.9203ZM362.729 10.6874C362.729 11.0283 365.601 17.4132 369.112 24.8756C372.623 32.338 375.496 38.5875 375.496 38.7637C375.496 38.9386 379.444 47.3484 384.268 57.451C389.094 67.5537 394.219 78.4045 395.658 81.5644C399.383 89.7443 407.397 106.911 414.43 121.781C417.752 128.803 422.197 138.283 424.31 142.847C432.014 159.491 436.591 169.283 442.511 181.787C448.628 194.705 453.369 204.871 459.78 218.812C461.718 223.025 466.553 233.309 470.523 241.665C474.495 250.022 478.82 259.215 480.132 262.092C482.318 266.884 487.546 278.067 498.693 301.798C511.315 328.667 515.101 336.843 517.467 342.334L520.079 348.398H562.607C605.092 348.398 605.134 348.396 606.01 345.634C606.493 344.114 610.324 335.64 614.524 326.803C618.725 317.965 625.821 302.858 630.294 293.23C634.768 283.602 640.807 270.676 643.714 264.504C646.621 258.332 653.02 244.665 657.933 234.132C662.844 223.599 669.164 210.098 671.977 204.129C674.788 198.161 681.11 184.659 686.027 174.126C690.944 163.594 696.852 150.954 699.157 146.039C701.462 141.123 706.042 131.356 709.335 124.334C712.629 117.312 716.398 109.212 717.711 106.333C719.024 103.455 723.348 94.2626 727.32 85.9052C731.29 77.5491 736.125 67.2652 738.063 63.052C744.728 48.5587 749.287 38.7624 755.807 24.9254C759.401 17.2983 762.342 10.8342 762.342 10.5623C762.342 10.2903 746.685 10.072 727.551 10.0759L692.76 10.0835L642.436 118.278C614.758 177.784 591.777 226.871 591.367 227.36C590.957 227.849 567.717 179.159 539.722 119.159L488.819 10.0682H425.774C391.099 10.0682 362.729 10.3465 362.729 10.6874ZM826.177 179.233V348.398H965.34H1104.5V327.971V307.543H1022.15H939.805V271.157V234.771H990.874H1041.94V214.981V195.192H990.874H939.805V123.058V50.9232H1022.15H1104.5V30.4957V10.0682H965.34H826.177V179.233ZM1204.09 179.18V348.398H1260.9H1317.71V292.223V236.047H1336.69H1355.66L1359.87 244.027C1365.94 255.553 1373.06 269.048 1388.3 297.968C1395.7 312.012 1404.64 328.96 1408.17 335.631L1414.58 347.76L1497.06 348.088L1579.54 348.418L1579.17 337.888L1578.8 327.361L1572.22 326.417C1553.22 323.693 1532.38 310.185 1504.68 282.647C1484.73 262.807 1480.49 258.034 1464.02 236.861L1454.22 224.268L1469.68 216.778C1488.72 207.546 1500.24 199.91 1511.67 188.944C1532.53 168.921 1542.45 147.7 1542.39 123.173C1542.34 96.7995 1531.83 73.0729 1511.43 53.2264C1491.39 33.7385 1466.59 21.0416 1434.15 13.6609C1421.99 10.8955 1419.76 10.8355 1312.93 10.4014L1204.09 9.96095V179.18ZM1785.54 49.5954C1830.15 65.0577 1880.08 136.638 1894.68 206.044C1906.53 262.414 1893.94 304.675 1863.25 311.545C1829.6 319.073 1779.7 276.12 1750.14 214.185C1732.48 177.201 1724.6 145.993 1724.55 112.844C1724.51 88.1957 1729.29 71.1451 1739.73 58.7482C1743.61 54.1367 1752.64 48.5 1758.61 46.9628C1764.61 45.4154 1776.96 46.6232 1785.54 49.5954ZM1400.06 55.2729C1412.09 60.2675 1423.59 67.6699 1429.81 74.4186C1457.59 104.554 1457.25 142.754 1428.94 170.87C1418.46 181.288 1409.39 186.776 1394.96 191.455C1386.8 194.098 1383.03 194.399 1351.87 194.895L1317.71 195.437V123.092V50.7483L1354.42 51.1543L1391.12 51.5615L1400.06 55.2729Z" fill="#E3E3E3"/>
</svg>
